<svg xmlns="http://www.w3.org/2000/svg" viewBox="0 0 64 64">
  <rect width="64" height="64" rx="14" fill="#ff073b"/>
  <g transform="translate(6, 4) scale(0.155)" fill="white">
    <path d="M217.25,267.27h-38.46c-6.55,0-12.34,4.48-13.76,10.87-4.97,22.39-24.98,39.17-48.82,39.17s-44.66-17.47-49.11-40.54c-1.05-5.46-5.67-9.5-11.23-9.5H12.05c-6.81,0-12.1,5.93-11.36,12.69,6.32,58.23,55.63,103.54,115.52,103.54s107.09-43.4,115.05-99.84c1.22-8.63-5.3-16.39-14.01-16.39Z"/>
    <path d="M250.96,34.86H116.2C49.3,34.86-4.4,91.4.29,159.3c3.95,57.3,50.38,103.72,107.67,107.67,67.9,4.68,124.44-49.02,124.44-115.92v-.14c0-7.26-5.89-13.14-13.14-13.14h-39.67c-7.28,0-13.41,5.81-13.38,13.1,0,1.1-.03,2.21-.1,3.33-1.45,23.42-19.51,43.1-42.74,46.35-31.89,4.46-59.14-21.4-57.06-52.88,1.7-25.7,25.42-46.64,51.18-46.64h133.47c10.06,0,18.21-8.15,18.21-18.21v-29.77c0-10.06-8.15-18.21-18.21-18.21Z"/>
    <path d="M313.05,0c-10.35,0-18.71,8.4-18.71,18.74s8.37,18.74,18.71,18.74,18.74-8.4,18.74-18.74S323.4,0,313.05,0ZM313.05,33.08c-7.89,0-14.31-6.42-14.31-14.34s6.42-14.31,14.31-14.31,14.34,6.42,14.34,14.31-6.42,14.34-14.34,14.34Z"/>
    <path d="M322.82,20.72c-.23,1.82-1.1,3.27-2.25,4.58-2.8,3.19-7.21,4.22-11.14,2.6-3.05-1.25-5.26-3.82-5.94-7.01-1.21-5.75,2.57-11.21,8.4-11.98,5.04-.67,9.81,2.62,10.96,7.63h-4.63c-1.13-2.49-3.74-3.75-6.27-3.17-2.51.57-4.34,2.87-4.29,5.43.05,2.62,1.88,4.86,4.42,5.33,2.59.48,5.17-.76,6.22-3.38l4.52-.03Z"/>
  </g>
</svg>