<?xml version="1.0" encoding="UTF-8"?>
<svg id="Calque_1" data-name="Calque 1" xmlns="http://www.w3.org/2000/svg" viewBox="0 0 391.99 115.3">
  <defs>
    <style>
      .cls-1 {
        fill: #e62443;
      }
    </style>
  </defs>
  <g>
    <path class="cls-1" d="M71.84,76.86h-12.72c-2.17,0-4.08,1.48-4.55,3.6-1.64,7.4-8.26,12.95-16.14,12.95s-14.77-5.78-16.24-13.41c-.35-1.81-1.87-3.14-3.71-3.14H3.98c-2.25,0-4,1.96-3.76,4.2,2.09,19.26,18.4,34.24,38.2,34.24s35.41-14.35,38.05-33.02c.4-2.85-1.75-5.42-4.63-5.42Z"/>
    <path class="cls-1" d="M82.99,0h-44.56C16.3,0-1.46,18.7.09,41.15c1.31,18.95,16.66,34.3,35.61,35.61,22.45,1.55,41.15-16.21,41.15-38.33v-.04c0-2.4-1.95-4.34-4.35-4.34h-13.12c-2.41,0-4.43,1.92-4.43,4.33,0,.36,0,.73-.03,1.1-.48,7.74-6.45,14.25-14.14,15.33-10.54,1.47-19.56-7.08-18.87-17.49.56-8.5,8.41-15.42,16.93-15.42h44.14c3.33,0,6.02-2.7,6.02-6.02V6.02c0-3.33-2.7-6.02-6.02-6.02Z"/>
  </g>
  <g>
    <path class="cls-1" d="M115.05,43.21c-2.04.22-3.98.88-5.81,1.98-2.27,1.33-4.21,3.18-5.81,5.51v-5.77c0-.8-.65-1.44-1.44-1.44h-11.38c-.8,0-1.44.65-1.44,1.44v37.91c0,.8.65,1.44,1.44,1.44h11.38c.8,0,1.44-.65,1.44-1.44v-16.37c0-3,.76-5.12,2.24-6.33,1.51-1.21,3.82-1.82,6.9-1.82h4v-13.68c0-.83-.7-1.53-1.52-1.44Z"/>
    <path class="cls-1" d="M123.17,43.49h11.21c.84,0,1.51.68,1.51,1.51v37.77c0,.84-.68,1.51-1.51,1.51h-11.21c-.84,0-1.51-.68-1.51-1.51v-37.77c0-.84.68-1.51,1.51-1.51Z"/>
    <path class="cls-1" d="M170.72,43.13c-2.76,0-5.21.58-7.33,1.73-2.15,1.12-3.85,2.63-5.09,4.45v-4.22c0-.88-.71-1.6-1.6-1.6h-11.07c-.88,0-1.6.71-1.6,1.6v37.6c0,.88.71,1.6,1.6,1.6h11.07c.88,0,1.6-.71,1.6-1.6v-20.3c0-2.3.61-4.15,1.82-5.48s2.88-2,5-2,3.66.67,4.88,2c1.21,1.33,1.82,3.18,1.82,5.48v20.3c0,.88.71,1.6,1.6,1.6h11.04c.88,0,1.6-.71,1.6-1.6v-22.18c0-5.33-1.36-9.57-4.12-12.69-2.79-3.12-6.51-4.69-11.21-4.69Z"/>
    <path class="cls-1" d="M233.22,30.5h-10.36c-1.09,0-1.98.89-1.98,1.98v16.61c-1.15-1.88-2.79-3.36-4.85-4.45-2.06-1.09-4.39-1.64-7-1.64-3.24,0-6.21.85-8.87,2.54-2.67,1.7-4.76,4.12-6.3,7.27-1.51,3.15-2.27,6.81-2.27,11.02s.76,7.93,2.27,11.08c1.54,3.18,3.63,5.63,6.27,7.33,2.63,1.7,5.57,2.54,8.81,2.54,2.79,0,5.18-.58,7.21-1.7,2.03-1.09,3.6-2.6,4.72-4.48v3.68c0,1.09.89,1.98,1.98,1.98h10.36c1.09,0,1.98-.89,1.98-1.98v-49.83c0-1.09-.89-1.98-1.98-1.98ZM218.81,70.11c-1.45,1.48-3.21,2.24-5.27,2.24s-3.91-.76-5.33-2.27c-1.39-1.54-2.09-3.6-2.09-6.24s.7-4.72,2.09-6.21c1.42-1.48,3.18-2.21,5.33-2.21s3.82.76,5.27,2.24c1.42,1.51,2.15,3.57,2.15,6.18s-.73,4.75-2.15,6.27Z"/>
    <path class="cls-1" d="M270.27,61.54c-1.97-.79-4.42-1.48-7.39-2.12-2.45-.55-4.27-1.06-5.36-1.57-1.12-.48-1.7-1.24-1.7-2.21,0-.76.3-1.36.94-1.82.58-.42,1.48-.64,2.63-.64,1.51,0,2.7.33,3.6,1.03.58.48,1.03,1.08,1.34,1.81.31.74,1.05,1.22,1.85,1.22h8.9c1.34,0,2.34-1.28,2-2.58-.81-3.09-2.41-5.66-4.82-7.74-3.06-2.6-7.24-3.91-12.57-3.91-3.6,0-6.66.58-9.21,1.73-2.54,1.18-4.45,2.73-5.78,4.69-1.3,1.97-1.94,4.15-1.94,6.57,0,2.82.7,5.06,2.12,6.69,1.42,1.64,3.12,2.85,5.06,3.57,1.94.73,4.36,1.36,7.27,1.94,2.57.61,4.42,1.12,5.51,1.61,1.12.48,1.7,1.24,1.7,2.27,0,.76-.36,1.39-1.03,1.88-.67.48-1.61.73-2.76.73-1.51,0-2.76-.36-3.79-1.09-.69-.49-1.19-1.1-1.5-1.85-.31-.74-1.04-1.21-1.84-1.21h-9.87c-1.33,0-2.35,1.26-2.01,2.55.45,1.71,1.26,3.29,2.4,4.75,1.67,2.18,3.94,3.88,6.81,5.09,2.88,1.24,6.18,1.88,9.84,1.88,3.45,0,6.45-.55,8.99-1.64,2.54-1.09,4.51-2.6,5.88-4.48,1.39-1.88,2.06-4.03,2.06-6.39,0-2.97-.73-5.3-2.21-7.03-1.45-1.73-3.18-2.97-5.15-3.73Z"/>
    <path class="cls-1" d="M313.7,45.46c-3.12-1.64-6.66-2.45-10.69-2.45s-7.66.85-10.78,2.54c-3.12,1.7-5.57,4.09-7.3,7.21-1.76,3.15-2.64,6.84-2.64,11.08s.88,8,2.67,11.15c1.76,3.15,4.21,5.57,7.33,7.27,3.12,1.7,6.69,2.54,10.72,2.54,3.33,0,6.39-.64,9.18-1.91,2.76-1.24,5.03-3,6.84-5.18,1.3-1.58,2.3-3.31,2.99-5.19.42-1.14-.43-2.35-1.64-2.35h-11.85c-.62,0-1.15.36-1.5.87-1.05,1.56-2.58,2.34-4.59,2.34-1.7,0-3.09-.55-4.18-1.64-1.09-1.09-1.7-2.76-1.85-5h26.95c.15-1.09.21-2.21.21-3.33,0-4.18-.88-7.78-2.6-10.87-1.76-3.06-4.18-5.42-7.27-7.09ZM296.47,59.84c.33-1.82,1.06-3.21,2.18-4.18,1.12-.94,2.54-1.39,4.3-1.39s3.18.48,4.36,1.48c1.15,1,1.73,2.36,1.73,4.09h-12.57Z"/>
    <path class="cls-1" d="M349.31,72.14c-1.21,0-2.06-.24-2.57-.73s-.76-1.27-.76-2.39v-12.17c0-.82.67-1.49,1.49-1.49h4.41c.82,0,1.49-.67,1.49-1.49v-8.89c0-.82-.67-1.49-1.49-1.49h-4.41c-.82,0-1.49-.67-1.49-1.49v-6.89c0-.82-.67-1.49-1.49-1.49h-11.34c-.82,0-1.49.67-1.49,1.49v6.89c0,.82-.67,1.49-1.49,1.49h-2.05c-.82,0-1.49.67-1.49,1.49v8.89c0,.82.67,1.49,1.49,1.49h2.05c.82,0,1.49.67,1.49,1.49v11.96c0,10.3,5.21,15.48,15.63,15.48h4.69c.82,0,1.49-.67,1.49-1.49v-10.65h-4.15Z"/>
  </g>
  <g>
    <path class="cls-1" d="M362.97,8.39c-5.18,0-9.36,4.2-9.36,9.38s4.19,9.38,9.36,9.38,9.38-4.2,9.38-9.38-4.2-9.38-9.38-9.38ZM362.97,24.94c-3.95,0-7.16-3.21-7.16-7.17s3.21-7.16,7.16-7.16,7.17,3.21,7.17,7.16-3.21,7.17-7.17,7.17Z"/>
    <path class="cls-1" d="M362.42,15.09c1.27-.29,2.58.34,3.14,1.58h2.32c-.58-2.5-2.97-4.15-5.49-3.82-2.92.39-4.81,3.12-4.2,5.99.34,1.6,1.45,2.88,2.97,3.51,1.97.81,4.18.3,5.58-1.3.57-.65,1.01-1.38,1.12-2.29l-2.26.02c-.53,1.31-1.82,1.93-3.11,1.69-1.27-.24-2.19-1.35-2.21-2.67-.02-1.28.89-2.43,2.15-2.72Z"/>
  </g>
  <circle class="cls-1" cx="384.69" cy="76.97" r="7.31"/>
</svg>