<svg xmlns="http://www.w3.org/2000/svg" id="Calque_1" data-name="Calque 1" viewBox="0 0 544.29 523.65" width="544.29" height="523.65"><defs>
    <style>
      .cls-1 {
        fill: #f3eae3;
      }

      .cls-2 {
        fill: #ff073b;
      }
    </style>
  </defs><rect class="cls-2" x="54.64" y="38.91" width="446.76" height="446.76" rx="223.38" ry="223.38"></rect><path class="cls-1" d="M408.62,143.25h-137.5c-72.88,0-130.4,65.76-116.48,141.18,8.78,47.56,46.32,85.09,93.88,93.87,75.41,13.92,141.17-43.6,141.17-116.48v-.13c0-7.41-6-13.41-13.41-13.41h-40.73c-7.49,0-13.39,6.14-13.4,13.64-.01,5.27-.82,10.76-2.61,16.4-4.09,12.91-18.02,27.24-30.85,31.58-35.62,12.05-68.83-14.43-68.59-48.43.19-28.22,23.86-50.67,52.08-50.67h106s30.44,0,30.44,0c10.27,0,18.59-8.32,18.59-18.59v-30.36c0-10.27-8.32-18.59-18.59-18.59Z"></path></svg>