<svg xmlns="http://www.w3.org/2000/svg" viewBox="0 0 544.29 523.65">
  <rect fill="#ff073b" x="48.77" y="38.44" width="446.76" height="446.76" rx="32.87" ry="32.87"/>
  <path fill="#f3eae3" d="M340.15,309.61h-31.64c-5.39,0-10.15,3.68-11.32,8.94-4.09,18.42-20.55,32.22-40.16,32.22s-36.74-14.37-40.4-33.35c-.87-4.49-4.66-7.81-9.24-7.81h-36.05c-5.6,0-9.95,4.88-9.35,10.44,5.2,47.91,45.76,85.18,95.03,85.18s88.1-35.7,94.65-82.13c1-7.1-4.36-13.49-11.52-13.49Z"/>
  <path fill="#f3eae3" d="M367.88,118.41h-110.86c-55.04,0-99.21,46.52-95.36,102.38,3.25,47.14,41.44,85.32,88.58,88.58,55.86,3.85,102.37-40.32,102.37-95.36v-.11c0-5.97-4.84-10.81-10.81-10.81h-32.63c-5.99,0-11.03,4.78-11.01,10.78,0,.9-.02,1.82-.08,2.74-1.19,19.26-16.05,35.46-35.16,38.13-26.23,3.67-48.65-17.61-46.94-43.5,1.4-21.15,20.91-38.36,42.11-38.36h109.8c8.28,0,14.98-6.71,14.98-14.98v-24.49c0-8.28-6.71-14.98-14.98-14.98Z"/>
</svg>
